<svg width="48" height="48" viewBox="0 0 48 48" fill="none" xmlns="http://www.w3.org/2000/svg">
<path d="M20.38 8.56914L19.15 10.4191C19.7432 11.6022 20.0336 12.914 19.9952 14.2369C19.9568 15.5598 19.5908 16.8525 18.93 17.9991H5.07C4.21117 16.5092 3.8553 14.7823 4.05514 13.0742C4.25499 11.3662 4.99991 9.76797 6.17948 8.51657C7.35905 7.26517 8.91047 6.42719 10.6037 6.12684C12.297 5.82649 14.042 6.07978 15.58 6.84914L17.43 5.61914C15.5465 4.41136 13.3123 3.87015 11.0849 4.08208C8.85746 4.29401 6.76545 5.24684 5.1435 6.78816C3.52155 8.32947 2.46337 10.3702 2.13822 12.584C1.81308 14.7977 2.23975 17.0565 3.35 18.9991C3.52452 19.3014 3.77509 19.5528 4.07684 19.7282C4.37858 19.9036 4.72098 19.997 5.07 19.9991H18.92C19.2724 20.0005 19.619 19.9088 19.9245 19.7332C20.2301 19.5576 20.4838 19.3044 20.66 18.9991C21.5814 17.4031 22.0438 15.5834 21.9961 13.7411C21.9485 11.8988 21.3926 10.1055 20.39 8.55914L20.38 8.56914Z" fill="black" fill-opacity="0.54"/>
<path d="M10.59 15.4099C10.7758 15.5959 10.9963 15.7434 11.2391 15.844C11.4819 15.9447 11.7422 15.9965 12.005 15.9965C12.2678 15.9965 12.5281 15.9447 12.7709 15.844C13.0137 15.7434 13.2343 15.5959 13.42 15.4099L19.08 6.91992L10.59 12.5799C10.4041 12.7657 10.2565 12.9862 10.1559 13.229C10.0552 13.4718 10.0034 13.7321 10.0034 13.9949C10.0034 14.2578 10.0552 14.518 10.1559 14.7608C10.2565 15.0036 10.4041 15.2242 10.59 15.4099Z" fill="black" fill-opacity="0.54"/>
</svg>
